<svg width="602" height="366" viewBox="0 0 602 366" fill="none" xmlns="http://www.w3.org/2000/svg">
<path d="M409.5 90.6C405.2 82.3 400.1 82.2 395 84.8C394.8 84.9 395.5 86.5 396.5 88.3L404.4 103.6C405.4 105.4 406.4 106.8 406.7 106.7C411.7 104.1 413.9 99.2 409.9 91.5L409.5 90.6Z" fill="white"/>
<path d="M594.9 115C591.9 109.9 588.5 105.7 584.7 101.3C581.4 97.3 576.8 92.3 577.5 86.7C578 83.1 578.7 80.8 580.1 77.8C581.4 74.9 582 72.2 582.6 68.9C583.4 65.2 582.8 62.8 581.7 59.1C580.5 55.4 579.9 51.4 578.3 47.9C577.7 46.4 576.8 45 575.9 43.7C577.2 42 581.5 35.6 582.5 34.2C584.4 31.6 584.9 28.6 586.8 26.3C589.2 23.4 591.8 21.4 593.7 17.7C595.2 14.6 596.8 10.1 599.1 7.60001C593.9 5.80001 587.9 6.90001 583 9.20001C578 11.6 573.9 12.8 568.3 13.8C565.9 14.2 563.4 14.5 560.9 15.1C559.6 15.4 554.9 16.1 554.5 16.5L551.8 17.1C551.9 16.2 552 15.4 552.1 14.5C552.5 10 553 0.400007 546.6 0.100007C544.2 6.90017e-06 540.1 2.19999 537.9 3.29999C534.3 5.09999 530.9 7.1 527.4 9C523.4 11.1 519.8 13.2 516.7 15.8L516.3 15.6C516.3 15.6 490.5 9.89999 490.9 13.3C490.9 13.3 484.5 15.2 479.9 14.6C477.1 13.5 473.8 12.7 470.8 13.2C468.3 13.6 458.9 16.7 456.6 16.8C455.2 16.8 453.8 16.6 452.4 16.4C451.4 16.2 450.3 15.9 449.3 15.5C448.8 15.3 448.4 19.1 448.3 19.8C448.2 20.4 429.1 28.5 419 28.4C408.9 28.4 402.1 34.6 402.1 34.6C402.6 35 403.2 35.2 403.7 35.5C404.3 35.8 405 35.9 405.7 36C406.1 36.1 406.5 36.1 406.9 36.1C408.2 36.2 372.1 50 338.4 69.3C333.4 72.2 329.2 80.3 329.2 80.3C328.8 80.5 328.5 80.7 328.1 80.9C318 86.6 308.2 92.7 298.6 99.2C290.9 104.4 283.2 109.8 275.8 115.5C271.9 118.5 268 121.7 264.2 124.9C262 126.7 258.9 129.4 255.8 128C253 126.8 251.9 124 250.8 121.4C249.3 118.1 247.5 115 245.9 111.8C238.5 97.7 227.6 92.2 227.6 92.2C212.1 75.1 181.2 65.4 174.7 64.5C172.5 64.2 165.9 65.8 163.5 64.8C163.2 64.7 162.8 64.6 162.2 64.6C132.1 60.8 91.3 80.7 91.4 81.8C91.5 82.5 93.1 82.7 93.4 83.5C94 84.9 70.3 97.8 62.9 102.6C55.5 107.4 44.2 112.4 36.7 104.6C35.8 108.5 38.2 112.3 38.2 112.3C21.8 112.9 9.8 89.6 9.8 89.6C-1.5 100 6.90004 119.2 6.90004 119.2C4.60004 118.9 1.00001 115.6 1.00001 115.6C0.200012 133.4 18.9 152.8 23.4 156.7C42.3 170.2 61.8 163.9 61.8 163.9C61.9 165.2 60.4 167.8 60.4 167.8C65 169.1 76.9 167.3 81.6 166.5C111.9 161.2 129.8 154.6 129.8 154.6C137.4 153 154.8 160.2 154.8 160.2C154.6 160.6 149.4 167.7 146.5 168.1C144.5 168.4 142.5 168.5 140.5 168.2C139.9 168.1 138.8 168 138.3 168.6C137.7 169.3 121.4 185.8 119.3 199C118.9 201.4 115.7 202.4 113.7 202.7C111.3 203.1 106.8 208 106.2 209.6C104.8 213.5 100.1 217.5 96.2 218.7C92.4 219.9 72.9 218.7 68 221.3C63.2 223.9 60 228.5 57 232.9C52.5 239.5 32 259.3 29.2 263.8C27.1 267.3 24.9 272.1 22 274.9C20.3 276.6 18.1 277.2 17.1 279.4C14.9 284 20.8 287.6 16.2 291C14.7 292.1 12.7 292.3 11.8 294.1C10.6 296.3 12.5 297.8 12.9 299.8C13.2 301.1 12.3 308.1 11.9 309.3C11.2 312.1 11.3 314.8 12.3 317.5C12.9 319.3 14 320.8 15.4 322C16.8 323.1 18.7 323.3 20.1 324.7C21.4 325.9 21.9 327.9 23.1 329.2C24.4 330.5 26.5 331.3 28.3 330.7C29.6 330.3 29.7 328.7 30 327.5C30.1 327.2 30.2 326.8 30.3 326.6C30.9 325.3 31.6 324.6 32.5 323.4C34.1 321.3 34.8 319.1 35.6 316.7C37.4 311.1 38.5 306.5 39 300.7C39.3 297.4 41.4 293.4 43.6 291C45.8 288.6 47.4 286.5 49 283.9C56.3 273.9 68.3 257 69.8 255.4C71.8 253.3 73.4 251.8 76.2 251.1C80.1 250.2 84.4 248.9 88.3 248.4C92.7 247.9 109.3 247.3 113.2 246.6C117.2 245.8 122.1 244 126.2 244.9C133.5 246.6 149.1 245.6 149.7 246.3C150.1 246.7 149.8 247.5 150.5 247.6C151.4 247.7 157.5 245.1 158.3 245.2C159.5 245.3 159.1 246.4 159.9 246.9C160.6 247.3 163.4 245.7 165.1 244.5C166.7 244.6 163.6 251.9 163.3 252.4C161 256.6 157.5 260 153.8 263C150.4 265.7 147.1 267.6 143.2 269.4C139.8 271 136.4 273.1 133.7 275.8C128.6 280.8 124.9 287.4 118.3 290.7C112.8 293.4 105.8 293.9 103 300.4C102 302.7 102.8 305.5 102.4 307.9C101.6 312.1 95.6 314.3 92.7 317C89.7 319.8 86.8 324.9 91.3 327.9C93.8 329.6 94.5 332.4 93 335.1C91.6 337.5 89.4 339.2 88.1 341.6C87 343.6 87.3 346.9 87.5 349.1C87.8 352.3 88.4 355.3 91.9 356.2C94.5 356.9 98 356.8 100 359C101 360.1 101.5 361.6 102.6 362.8C104.1 364.2 106.3 365.9 108.5 365.9C112 365.8 111.7 361.3 112 358.7C112.5 354.8 113.3 351.3 114.7 347.6C115.5 345.2 115.8 343.6 116.3 341C116.7 338.9 116.5 338 116.3 336C116 332.9 118.1 331.3 120.2 329.6C122.3 327.9 122.7 326.4 124 324.1C126.5 319.4 129.9 314.9 133.3 310.8C136.2 307.2 139.1 304.2 143.5 302.5C148.9 300.4 153.3 296.3 157.8 292.6C159.8 291 161.8 289.5 163.7 287.8C164.1 287.4 164.5 287.1 164.9 286.8C165 286.7 165 286.7 165.1 286.6C165.5 286.2 165.9 285.9 166.4 285.6C166.5 285.6 166.5 285.5 166.6 285.5C167.1 285.2 167.5 284.9 168 284.6C168 284.6 168 284.6 168.1 284.6C168.6 284.3 169.1 284.1 169.7 283.9C170.1 283.8 170.4 283.7 170.8 283.6C177.2 282.3 183.8 280.8 189.9 278.4C194.2 276.7 198.8 274.4 202.3 271.5C206 268.5 209.4 265.3 213.1 262.3C214 261.6 218.8 260 223.2 258.6C222.6 259.7 222.6 260.2 223.6 259.4C224.1 259 224.6 258.7 225.2 258.4C226.9 257.5 228.8 256.9 230.6 256.2C231.8 255.7 232.7 255 233.6 254.2C234.3 253.6 234.6 252.6 235.2 252C235.4 251.7 235.9 251.3 236.3 251.3C237.2 251.4 241.4 250.9 241.9 250C242.2 249.5 245.7 249.7 247.7 249.3C248.1 249.3 248.4 249.2 248.6 249C248.7 248.9 248.8 248.9 248.9 248.8C250 247.4 251.2 245.9 252.8 244.9C253.2 244.6 253.7 244.5 254.2 244.5C254.5 244.5 256.5 243.7 259.5 242.5C271.2 237.8 298.1 226.6 300.9 226.7C302.4 226.8 302.2 228 302.1 229.1C302 230.3 327.2 222.3 328.4 221.8C330.2 221 337.6 219.1 339.7 218.2C340.8 217.7 353.2 212.8 354.1 211.8C354.6 211.2 355.3 210.6 355.9 210.2C356.1 210.1 361.5 208 367.7 205.2C367.2 206.7 366.4 207.9 365.5 209C365.5 209 393.2 195.1 390.7 194.1C389.8 193.8 389 193.4 388.3 193.1L388.6 192.4C395 195.3 401.3 199.2 407 203.3C411.7 206.6 416.1 210.2 421 213.3C423.4 214.8 425.4 216.5 428 217.8C428.9 218.3 430 218.9 430.9 219.6C431.2 219.8 431.4 220 431.6 220.2C431.8 220.4 432 220.6 432.2 220.8L432.3 220.9C432.5 221.1 432.6 221.3 432.8 221.5L432.9 221.6C433.1 221.8 433.2 222.1 433.4 222.3C435.2 225.6 434.4 229.1 432.9 232.4C431.6 235.3 429.8 237.3 431.3 240.4C431.7 241.3 432.4 241.7 432.4 242.7C432.5 244.9 430 245.9 428.4 246.6C426.5 247.4 424.9 248.2 423.2 249.4C419.8 251.8 417.5 256.1 417.5 260.3C417.5 262.3 418 263.6 418.5 265.4C419.5 268.9 417.9 272.4 418.7 275.9C418.8 276.2 418.9 276.5 418.9 276.8C418.9 276.9 419 277 419 277.1C419.1 277.3 419.1 277.5 419.2 277.7C419.3 277.9 419.3 278 419.4 278.1C419.5 278.3 419.5 278.5 419.6 278.6C419.7 278.8 419.7 278.9 419.8 279.1C419.9 279.3 420 279.4 420.1 279.6C420.2 279.8 420.3 279.9 420.4 280.1C420.5 280.2 420.6 280.4 420.7 280.5C420.8 280.6 420.9 280.8 421 280.9C421.1 281 421.3 281.1 421.4 281.2C421.6 281.4 421.8 281.6 422.1 281.7C422.2 281.8 422.4 281.9 422.5 281.9C422.9 282 423.3 282.1 423.7 282.1C429 281.8 432 276.5 437.4 275.9C441 275.5 443.8 272.7 446.2 270.3C448.8 267.7 452.1 264.8 454.1 261.8C457.6 256.7 458.7 248.3 459.6 242.3C460.3 237.4 458.3 232.4 459.5 227.6C460.9 221.9 461.9 216.4 460.7 210.6C459.7 205.9 456.1 202.2 452.7 199C448.6 195.1 443.9 191.9 439.9 187.8C438.8 186.7 437.8 185.5 436.9 184.4C438.1 184.7 439.4 184.9 440.6 185.2C446 186.2 451.5 185.9 456.8 184.6C457.6 184.4 477.8 179.4 479.4 179.7C480.3 179.9 488.4 187.3 489 188C490 189.2 489.8 191.1 489.6 192.6C489.1 195.7 485.3 205 485.6 208.6C485.7 210.1 490.2 214.5 492.4 217.1C492.1 217.1 491.8 217.1 491.5 217.1C492.4 217.4 493.2 217.9 493.5 218.6C494.4 220.4 494.4 222.5 495.5 224.2C496.6 225.8 497.9 226.7 499.3 227.9C499.7 228.2 500.2 228.6 500.7 228.8C500.7 228.8 500.7 228.8 500.7 228.7C502.4 229.5 504.5 229.6 505.8 228.1C507.7 226.1 508.4 223.5 509.4 221C510.4 218.2 511.4 215.3 512.5 212.5C514.8 206.8 519.4 201.8 520.1 195.5C520.7 189.8 517.3 184.4 514.7 179.5C511.8 173.9 507.8 167.9 504.3 156.4C503 152.4 499.3 149 495.1 147.6C492.4 146.7 489.3 147 486.3 147L481.4 145.2C482.5 144.2 483.6 143.2 484.9 142.5C487.8 140.8 495.3 135.9 497.6 134.6C499.2 133.7 509.7 129 512.2 128.2C513 128 513.7 127.8 514.5 127.7C516.7 127.3 518.9 127.1 521.2 126.3C524.6 125.1 529.7 125 533.3 124.7C537.3 124.4 541.3 124.9 545 126.4C547.2 127.3 550.1 128.5 552.2 129.4C557.2 131.6 562 133.4 567 135.7C572.5 138.3 579.3 140.6 585 137.1C586.6 136.1 586.6 135.7 588.3 135.3C589.3 135 590.5 135.2 591.5 135C595.2 134.3 595.9 133 597.4 130.2C598.5 128 601.3 126.6 601 123.9C600.7 120.7 596.4 117.9 594.7 115.1L594.9 115ZM212.8 212.2C212.7 214.3 211 215.6 209 215.1L203.7 213.9C201.7 213.4 200.1 211.4 200.2 209.3L200.7 201.8C200.8 199.7 199.3 197.7 197.2 197.2L193 196.2C191 195.7 188.7 196.9 187.9 198.9L185.1 205.8C184.3 207.7 182 208.9 180 208.5L175.1 207.4C173.1 206.9 172.1 205 172.9 203.1L200.4 140.1C201.2 138.2 203.6 137 205.6 137.5L211.8 138.9C213.8 139.4 215.4 141.4 215.3 143.5L212.8 212.2ZM260.1 219.7C249.4 220.2 241.2 213.6 240.4 198L237.9 148.9C237.8 146.8 239.4 145 241.5 144.9L246.8 144.6C248.9 144.5 250.7 146.1 250.8 148.2L253.4 198.6C253.7 205.3 256.2 207.9 259.5 207.7C262.8 207.5 265 204.7 264.7 198L262.1 147.6C262 145.5 263.6 143.7 265.7 143.6L271 143.3C273.1 143.2 274.9 144.8 275 146.9L277.5 196C278.2 211.7 270.7 219.1 260.1 219.7ZM331.1 195.9C326.5 198.1 322 198.8 317.8 198.8L313.6 190C312.7 188.2 313.6 186.8 315.6 186.8C319.1 186.9 322 186.5 324.4 185.3C327.8 183.7 329.9 180.7 327.9 176.5L327.8 176.3C326.3 173.2 324.3 171.4 315.7 167.7C303.4 162.5 298 159.7 294.1 151.5L294 151.3C288.9 140.5 292.6 130.3 302 125.9C306.7 123.7 309.8 123 313.4 123.1L317.6 131.9C318.5 133.8 317.5 135.2 315.5 135.1C312.9 135.1 311 135.5 308.8 136.5C305.5 138.1 303.7 141.5 305.5 145.2L305.6 145.4C307.1 148.6 308.6 149.3 317.3 153.1C331.7 159.4 335.6 162.6 339.3 170.3L339.4 170.5C344.4 181 340.4 191.5 331.1 195.9ZM383.6 165L379 167.9C377.2 169 374.9 168.5 373.8 166.7L344.6 120.4C343.5 118.6 341.1 118.1 339.4 119.2L338 120.1C336.2 121.2 333.9 120.7 332.8 118.9L330.2 114.8C329.1 113 329.6 110.7 331.4 109.6L351.6 96.9C353.4 95.8 355.7 96.3 356.8 98.1L359.4 102.2C360.5 104 360 106.3 358.2 107.4L356.8 108.3C355 109.4 354.5 111.8 355.6 113.5L384.8 159.9C385.9 161.6 385.3 163.9 383.6 165ZM442.2 130.8L436.6 133.7C434.8 134.7 432 134.2 430.6 132.8L416.5 118.9C415 117.4 413.3 116.5 412.7 116.8C412.1 117.1 412.4 118.9 413.3 120.7L421.8 137.1C422.8 138.9 422 141.2 420.2 142.2L415.3 144.7C413.5 145.7 411.2 144.9 410.2 143.1L379.3 83.5C378.3 81.7 379.1 79.4 380.9 78.4L389.5 74C401.3 67.9 413.2 69.6 420.9 84.5L421.4 85.4C425.9 94 425.3 101.3 422.7 106.9L442.8 126.6C444.4 127.8 444.1 129.8 442.2 130.8ZM472.6 118L467.5 119.9C465.6 120.6 463.4 119.6 462.6 117.7L438.7 55C438 53.1 439 50.9 440.9 50.1L446 48.2C447.9 47.5 450.1 48.5 450.9 50.4L474.8 113.1C475.5 115.1 474.6 117.3 472.6 118ZM530.9 102L525.6 103.2C523.6 103.6 521.3 102.4 520.5 100.5L517.7 93.6C516.9 91.7 514.6 90.5 512.6 90.9L508.4 91.8C506.4 92.2 504.8 94.3 504.9 96.4L505.4 103.8C505.5 105.9 504 107.9 501.9 108.4L497 109.5C495 109.9 493.2 108.6 493.2 106.5L491 37.9C490.9 35.8 492.5 33.8 494.6 33.3L500.8 31.9C502.8 31.5 505.2 32.6 506 34.5L533.2 97.6C533.9 99.6 533 101.5 530.9 102Z" fill="white"/>
<path d="M201.8 164.8L195.2 180.9C194.4 182.8 195.4 184.8 197.5 185.2L197.9 185.3C199.9 185.8 201.7 184.4 201.8 182.4L202.9 165C203.1 163 202.6 162.9 201.8 164.8Z" fill="white"/>
<path d="M504 59.3C503.2 57.4 502.7 57.5 502.8 59.6L503.8 77C503.9 79.1 505.7 80.4 507.7 80L508.1 79.9C510.1 79.5 511.2 77.5 510.4 75.6L504 59.3Z" fill="white"/>
</svg>
